<svg id="responsive-design-icon" width="162" height="106" viewBox="0 0 162 106" fill="none" xmlns="http://www.w3.org/2000/svg">
  <g id="Frame 1">
    <path id="laptop"
      d="M17.1731 77.4558H54.2115V82.6675H75.8173V77.4558H112.856M17.1731 77.4558H11C11 88.2962 19.2308 90.3114 23.3462 89.9639C49.4103 89.9639 103.185 89.9639 109.769 89.9639C116.354 89.9639 118 81.6252 118 77.4558H112.856M17.1731 77.4558C17.1731 60.7784 17.1731 26.3811 17.1731 22.2117C17.1731 18.0423 21.2885 17 23.3462 17C31.9041 17 42.96 17 54.2115 17M112.856 77.4558V22.2117C113.199 20.4745 110.798 17 106.683 17C104.757 17 92.3156 17 76.8462 17M54.2115 17C54.2115 17.3474 54.2115 18.6677 54.2115 21.1694C54.2115 23.671 56.2692 23.2541 57.2981 23.2541C62.4423 23.2541 73.1423 23.2541 74.7885 23.2541C76.8462 23.2541 76.8462 22.2117 76.8462 21.1694C76.8462 20.3355 76.8462 18.0423 76.8462 17M54.2115 17C61.9107 17 69.7014 17 76.8462 17"
      stroke="black" stroke-width="2" />
    <path id="photo"
      d="M30 67V34H78V67H69.8298M30 67L42.2553 46.375L48.8936 56.6875M30 67H55.5319M55.5319 67L48.8936 56.6875M55.5319 67H69.8298M48.8936 56.6875L55.5319 46.375L69.8298 67M62.6809 43.2812C62.6809 41.2188 64.7234 39.1562 66.766 39.1562C68.8085 39.1562 70.8511 41.2188 70.8511 43.2812C70.8511 45.3438 68.8085 47.4062 66.766 47.4062C64.7234 47.4062 62.6809 45.3438 62.6809 43.2812Z"
      stroke="black" stroke-width="2" />
    <path id="phone"
      d="M134.579 42.5714H143.421M133.316 89C127 89 127 85.4286 127 83.0476C127 80.6667 127 48.5238 127 43.7619C127 39 130.789 39 133.316 39C135.842 39 142.158 39 144.684 39C147.211 39 151 39 151 43.7619C151 47.3333 151 79.4762 151 83.0476C151 86.619 149.737 89 144.684 89C140.642 89 136.684 89 133.316 89Z"
      stroke="black" stroke-width="2" />
  </g>
</svg>