<svg width="162" height="106" viewBox="0 0 162 106" fill="none" xmlns="http://www.w3.org/2000/svg">
  <g id="scalability">
    <path id="bulb"
      d="M79 67.5L74.6 46.7831L78.5 49.829L81.8429 46.7831L85.1857 49.829L89.3643 46.7831L85 67.5M77.3214 72.908C75.3714 72.908 75.9286 75.0402 76.4857 76.2586C76.9994 77.3819 78.9929 79 81.5 79C84.0071 79 86.2357 77.477 86.7929 76.2586C87.35 75.0402 87.6286 72.908 86.2357 72.908C85.1214 72.908 78.9929 72.908 77.3214 72.908ZM77.3214 70.1667C75.0929 70.1667 75.0929 67.4253 75.0929 65.5977C75.0929 62.5517 62 54.9368 62 43.9713C62 37.5747 67.5678 26 81.5 26C94.5929 26 101 36.6609 101 43.9713C101 55.2486 88.7429 62.2471 88.7429 65.5977C88.7429 68.0345 88.4643 70.1667 86.2357 70.1667C84.5643 70.1667 78.9929 70.1667 77.3214 70.1667Z"
      stroke="black" stroke-width="2" />
    <path id="fat-arrow-8"
      d="M116.5 53.5V48.5H125.5L123 45.5L126.5 42.5L134 51L126.5 59.5L123 56.5L125.5 53.5H116.5Z"
      stroke="black" stroke-width="2" />
    <path id="fat-arrow-7"
      d="M108.778 27.1525L105.243 23.617L111.607 17.2531L107.718 16.8995L108.071 12.3033L119.385 13.0104L120.092 24.3241L115.496 24.6777L115.142 20.7886L108.778 27.1525Z"
      stroke="black" stroke-width="2" />
    <path id="fat-arrow-6"
      d="M84 20.5L79 20.5L79 11.5L76 14L73 10.5L81.5 3L90 10.5L87 14L84 11.5L84 20.5Z"
      stroke="black" stroke-width="2" />
    <path id="fat-arrow-5"
      d="M59.6554 23.9461L57.1554 28.2763L49.3612 23.7763L50.0263 27.6244L45.4952 28.4724L43.25 17.3612L53.9952 13.75L55.5263 18.0981L51.8612 19.4461L59.6554 23.9461Z"
      stroke="black" stroke-width="2" />
    <path id="fat-arrow-4"
      d="M46.5 49L46.5 54L37.5 54L40 57L36.5 60L29 51.5L36.5 43L40 46L37.5 49L46.5 49Z"
      stroke="black" stroke-width="2" />
    <path id="fat-arrow-3"
      d="M57.1554 74.1962L59.6554 78.5263L51.8612 83.0263L55.5263 84.3744L53.9952 88.7224L43.25 85.1112L45.4952 74L50.0263 74.8481L49.3612 78.6962L57.1554 74.1962Z"
      stroke="black" stroke-width="2" />
    <path id="fat-arrow-2"
      d="M79 85L84 85L84 94L87 91.5L90 95L81.5 102.5L73 95L76 91.5L79 94L79 85Z" stroke="black"
      stroke-width="2" />
    <path id="fat-arrow-1"
      d="M104 78.5263L106.5 74.1962L114.294 78.6962L113.629 74.8481L118.16 74L120.405 85.1112L109.66 88.7224L108.129 84.3744L111.794 83.0263L104 78.5263Z"
      stroke="black" stroke-width="2" />
  </g>
</svg>