<svg width="162" height="106" viewBox="0 0 162 106" fill="none" xmlns="http://www.w3.org/2000/svg">
  <g id="seo">
    <path id="search-bar"
      d="M124.5 16L40.5 16C28.5 16 19 22.0644 19 34.5C19 46.5 29 51.5 40.5 51.5L123.5 51.5C136 51.5 144 43.9356 144 34.5C144 25.0644 138.5 16 124.5 16Z"
      stroke="black" stroke-width="2" />
    <path id="result"
      d="M52.5 66.5H138M52.5 82.5L97 83M52.5 70.5H138M52.5 74.5H138M52.5 78.5H138M29.5 66.5H47V83H29.5V66.5ZM22 59.5V89.5H143.5V59.5H22Z"
      stroke="black" stroke-width="2" />
    <path id="magnifying-glass"
      d="M123.202 38.741C121.664 40.0122 119.532 40.8099 116.712 40.8099C109.775 40.8099 107 35.2928 107 31.155C107 27.0171 109.775 21.5 116.018 21.5C122.262 21.5 126.424 26.3275 126.424 31.155C126.424 33.0639 125.99 34.9728 125.036 36.5832M123.202 38.741C125.036 40.8099 128.199 43.954 130.586 46.327C131.28 47.0167 133.92 45.5039 132.667 44.2581C130.586 42.1892 127.118 38.741 125.036 36.5832M123.202 38.741C123.951 38.1216 124.559 37.3899 125.036 36.5832M116.268 24.7327C119.735 24.7327 123.202 27.4223 123.202 31.0086C123.202 35.3058 120.168 37.7327 116.268 37.7327C112.368 37.7327 110.202 34.3531 110.202 31.0086C110.202 27.664 112.802 24.7327 116.268 24.7327Z"
      stroke="black" stroke-width="2" />
  </g>
</svg>