<svg width="162" height="106" viewBox="0 0 162 106" fill="none" xmlns="http://www.w3.org/2000/svg">
  <g id="tailored-solutions">
    <path id="ruler"
      d="M70.6074 54.1964L39 85.2976L53.6748 100L59.5781 93.7798M86.411 65.506L83.9082 68.2115M85.2822 38.3631L117.454 5L131 18.5714L125.215 24.7319M99.9571 51.369L117.652 32.7083M59.5781 93.7798L51.9816 86.4286M59.5781 93.7798L64.408 88.6905M64.408 88.6905L61.0123 85.2976M64.408 88.6905L68.3497 84.5371M68.3497 84.5371L64.9632 81.3393M68.3497 84.5371L72.4579 80.2083M72.4579 80.2083L64.9632 72.8571M72.4579 80.2083L76.2145 76.25M76.2145 76.25L73.4294 72.8571M76.2145 76.25L80.2025 72.0479M80.2025 72.0479L77.3804 68.8988M80.2025 72.0479L83.9082 68.2115M83.9082 68.2115L76.816 60.9821M102.215 49.1071L95.4417 42.3214M106.166 44.5833L102.779 41.1905M110.117 40.625L106.73 37.2321M114.067 36.6667L107.859 30.4464M117.652 32.7083L114.632 29.3155M117.652 32.7083L121.405 28.75M121.405 28.75L118.018 25.3571M121.405 28.75L125.215 24.7319M125.215 24.7319L118.583 18.5714"
      stroke="black" stroke-width="2" />
    <g id="scissors">
      <g id="scissors-hand-1">
        <path
          d="M95.6218 87.3027C94.9415 84.7551 94.4315 82.0488 95.5459 78.0586C96.4552 75.7097 97.8304 74.5582 100.194 75.3462C103.15 76.3312 106.494 80.4428 107.447 82.667C108.724 85.6468 108.503 87.6815 108.276 89.5C108.048 91.3185 106.457 94.1978 102.214 93.6674C99.183 93.2886 96.302 89.8503 95.6218 87.3027Z"
          stroke="black" stroke-width="2" />
        <path
          d="M90.2823 58.9129L98.0919 71.3609C101.385 71.7725 103.726 72.9851 105.747 74.3421C107.767 75.6992 110.591 78.4644 112 82.5C113.97 88.1448 113.348 94.0001 108.276 96.927C105.392 98.591 101.4 98.9948 97.0385 96.4251C92.6769 93.8555 90.0824 87.2721 90.7519 81.9152C91.0011 79.9219 91.4254 76.8754 92.4163 74.3L44.3769 5.5C50.8175 8.15195 61.7617 14.9172 66.1234 18.6841C77.6679 28.6542 87.5066 42.6293 92.7779 50.1167L92.9465 50.3563L90.2823 58.9129Z"
          stroke="black" stroke-width="2" />
      </g>
      <path id="scissors-hand-2"
        d="M69.4574 40.7639L28.3893 24.5491C35.2088 34.0204 43.0133 40.5367 51.6512 45.3102C60.2892 50.0838 79.232 57.7871 82.4902 59.6308M93.4769 50.5382L111.435 54.6297C112.975 53.7962 117.966 51.6292 120.452 51.4473C123.558 51.22 129.014 51.9019 132.878 55.4631C136.742 59.0243 136.379 63.904 134.469 67.3592C131.287 73.1178 124.468 73.4967 118.709 70.3143C114.102 67.7685 110.652 62.5352 109.465 60.5399L95.0682 57.5091L91.7343 59.555M117.421 55.9936C118.709 55.539 121.949 54.7246 124.846 55.6905C127.744 56.6563 130.074 58.1909 131.06 60.1609C132.537 63.116 131.59 65.768 128.938 67.2834C126.286 68.7989 123.861 68.4958 121.512 67.5866C119.751 66.9046 116.36 64.48 115.375 62.5099C113.829 59.4191 115.489 56.6755 117.421 55.9936Z"
        stroke="black" stroke-width="2" />
      <path id="vertex"
        d="M85.716 53.6695C85.2304 53.8401 84.7511 53.5489 84.6061 53.1402C84.4612 52.7316 84.7504 52.1704 85.1363 52.0349C85.5463 51.8908 86.1013 52.1555 86.2462 52.5641C86.3911 52.9728 86.2016 53.4989 85.716 53.6695Z"
        fill="black" stroke="black" stroke-width="2" />
    </g>
  </g>
</svg>